<mxfile host="app.diagrams.net" modified="2024-01-30T01:06:58.630Z" agent="Mozilla/5.0 (Windows NT 10.0; Win64; x64) AppleWebKit/537.36 (KHTML, like Gecko) Chrome/121.0.0.0 Safari/537.36 Edg/121.0.0.0" etag="r8IeAi1p9T4pdsf8TDsl" version="23.0.2" type="github">
  <diagram name="Page-1" id="YYMiWOQQ2JgvEnZ93y6O">
    <mxGraphModel dx="791" dy="973" grid="1" gridSize="10" guides="1" tooltips="1" connect="1" arrows="1" fold="1" page="1" pageScale="1" pageWidth="850" pageHeight="1100" math="0" shadow="0">
      <root>
        <mxCell id="0" />
        <mxCell id="1" parent="0" />
        <mxCell id="_VO-k-y00DCZbbIr2-gV-6" value="10" style="edgeStyle=orthogonalEdgeStyle;rounded=0;orthogonalLoop=1;jettySize=auto;html=1;entryX=0.5;entryY=0;entryDx=0;entryDy=0;" edge="1" parent="1" source="_VO-k-y00DCZbbIr2-gV-1" target="_VO-k-y00DCZbbIr2-gV-2">
          <mxGeometry relative="1" as="geometry" />
        </mxCell>
        <mxCell id="_VO-k-y00DCZbbIr2-gV-7" style="edgeStyle=orthogonalEdgeStyle;rounded=0;orthogonalLoop=1;jettySize=auto;html=1;entryX=0.5;entryY=0;entryDx=0;entryDy=0;" edge="1" parent="1" source="_VO-k-y00DCZbbIr2-gV-1" target="_VO-k-y00DCZbbIr2-gV-3">
          <mxGeometry relative="1" as="geometry" />
        </mxCell>
        <mxCell id="_VO-k-y00DCZbbIr2-gV-39" value="10" style="edgeLabel;html=1;align=center;verticalAlign=middle;resizable=0;points=[];" vertex="1" connectable="0" parent="_VO-k-y00DCZbbIr2-gV-7">
          <mxGeometry x="0.1912" relative="1" as="geometry">
            <mxPoint as="offset" />
          </mxGeometry>
        </mxCell>
        <mxCell id="_VO-k-y00DCZbbIr2-gV-8" style="edgeStyle=orthogonalEdgeStyle;rounded=0;orthogonalLoop=1;jettySize=auto;html=1;entryX=0.5;entryY=0;entryDx=0;entryDy=0;" edge="1" parent="1" source="_VO-k-y00DCZbbIr2-gV-1" target="_VO-k-y00DCZbbIr2-gV-4">
          <mxGeometry relative="1" as="geometry" />
        </mxCell>
        <mxCell id="_VO-k-y00DCZbbIr2-gV-37" value="10" style="edgeLabel;html=1;align=center;verticalAlign=middle;resizable=0;points=[];" vertex="1" connectable="0" parent="_VO-k-y00DCZbbIr2-gV-8">
          <mxGeometry x="0.665" y="-1" relative="1" as="geometry">
            <mxPoint y="-1" as="offset" />
          </mxGeometry>
        </mxCell>
        <mxCell id="_VO-k-y00DCZbbIr2-gV-9" style="edgeStyle=orthogonalEdgeStyle;rounded=0;orthogonalLoop=1;jettySize=auto;html=1;entryX=0.5;entryY=0;entryDx=0;entryDy=0;" edge="1" parent="1" source="_VO-k-y00DCZbbIr2-gV-1" target="_VO-k-y00DCZbbIr2-gV-5">
          <mxGeometry relative="1" as="geometry" />
        </mxCell>
        <mxCell id="_VO-k-y00DCZbbIr2-gV-38" value="10" style="edgeLabel;html=1;align=center;verticalAlign=middle;resizable=0;points=[];" vertex="1" connectable="0" parent="_VO-k-y00DCZbbIr2-gV-9">
          <mxGeometry x="0.2861" y="-1" relative="1" as="geometry">
            <mxPoint as="offset" />
          </mxGeometry>
        </mxCell>
        <mxCell id="_VO-k-y00DCZbbIr2-gV-1" value="0&lt;br&gt;" style="ellipse;whiteSpace=wrap;html=1;aspect=fixed;" vertex="1" parent="1">
          <mxGeometry x="345" y="180" width="80" height="80" as="geometry" />
        </mxCell>
        <mxCell id="_VO-k-y00DCZbbIr2-gV-21" style="edgeStyle=orthogonalEdgeStyle;rounded=0;orthogonalLoop=1;jettySize=auto;html=1;entryX=0.5;entryY=0;entryDx=0;entryDy=0;" edge="1" parent="1" source="_VO-k-y00DCZbbIr2-gV-2" target="_VO-k-y00DCZbbIr2-gV-14">
          <mxGeometry relative="1" as="geometry" />
        </mxCell>
        <mxCell id="_VO-k-y00DCZbbIr2-gV-46" value="16" style="edgeLabel;html=1;align=center;verticalAlign=middle;resizable=0;points=[];" vertex="1" connectable="0" parent="_VO-k-y00DCZbbIr2-gV-21">
          <mxGeometry x="0.2697" y="1" relative="1" as="geometry">
            <mxPoint as="offset" />
          </mxGeometry>
        </mxCell>
        <mxCell id="_VO-k-y00DCZbbIr2-gV-2" value="4" style="ellipse;whiteSpace=wrap;html=1;aspect=fixed;" vertex="1" parent="1">
          <mxGeometry x="80" y="350" width="80" height="80" as="geometry" />
        </mxCell>
        <mxCell id="_VO-k-y00DCZbbIr2-gV-19" style="edgeStyle=orthogonalEdgeStyle;rounded=0;orthogonalLoop=1;jettySize=auto;html=1;exitX=0.5;exitY=1;exitDx=0;exitDy=0;entryX=0.5;entryY=0;entryDx=0;entryDy=0;" edge="1" parent="1" source="_VO-k-y00DCZbbIr2-gV-3" target="_VO-k-y00DCZbbIr2-gV-13">
          <mxGeometry relative="1" as="geometry" />
        </mxCell>
        <mxCell id="_VO-k-y00DCZbbIr2-gV-44" value="20" style="edgeLabel;html=1;align=center;verticalAlign=middle;resizable=0;points=[];" vertex="1" connectable="0" parent="_VO-k-y00DCZbbIr2-gV-19">
          <mxGeometry x="0.4825" y="4" relative="1" as="geometry">
            <mxPoint as="offset" />
          </mxGeometry>
        </mxCell>
        <mxCell id="_VO-k-y00DCZbbIr2-gV-22" style="edgeStyle=orthogonalEdgeStyle;rounded=0;orthogonalLoop=1;jettySize=auto;html=1;entryX=1;entryY=0;entryDx=0;entryDy=0;" edge="1" parent="1" source="_VO-k-y00DCZbbIr2-gV-3" target="_VO-k-y00DCZbbIr2-gV-14">
          <mxGeometry relative="1" as="geometry" />
        </mxCell>
        <mxCell id="_VO-k-y00DCZbbIr2-gV-45" value="20" style="edgeLabel;html=1;align=center;verticalAlign=middle;resizable=0;points=[];" vertex="1" connectable="0" parent="_VO-k-y00DCZbbIr2-gV-22">
          <mxGeometry x="0.7172" y="-2" relative="1" as="geometry">
            <mxPoint as="offset" />
          </mxGeometry>
        </mxCell>
        <mxCell id="_VO-k-y00DCZbbIr2-gV-3" value="3" style="ellipse;whiteSpace=wrap;html=1;aspect=fixed;" vertex="1" parent="1">
          <mxGeometry x="350" y="350" width="80" height="80" as="geometry" />
        </mxCell>
        <mxCell id="_VO-k-y00DCZbbIr2-gV-23" style="edgeStyle=orthogonalEdgeStyle;rounded=0;orthogonalLoop=1;jettySize=auto;html=1;entryX=1;entryY=0;entryDx=0;entryDy=0;" edge="1" parent="1" source="_VO-k-y00DCZbbIr2-gV-4" target="_VO-k-y00DCZbbIr2-gV-12">
          <mxGeometry relative="1" as="geometry" />
        </mxCell>
        <mxCell id="_VO-k-y00DCZbbIr2-gV-43" value="25" style="edgeLabel;html=1;align=center;verticalAlign=middle;resizable=0;points=[];" vertex="1" connectable="0" parent="_VO-k-y00DCZbbIr2-gV-23">
          <mxGeometry x="0.4942" relative="1" as="geometry">
            <mxPoint as="offset" />
          </mxGeometry>
        </mxCell>
        <mxCell id="_VO-k-y00DCZbbIr2-gV-4" value="2" style="ellipse;whiteSpace=wrap;html=1;aspect=fixed;" vertex="1" parent="1">
          <mxGeometry x="500" y="340" width="80" height="80" as="geometry" />
        </mxCell>
        <mxCell id="_VO-k-y00DCZbbIr2-gV-15" style="edgeStyle=orthogonalEdgeStyle;rounded=0;orthogonalLoop=1;jettySize=auto;html=1;entryX=0.5;entryY=0;entryDx=0;entryDy=0;" edge="1" parent="1" source="_VO-k-y00DCZbbIr2-gV-5" target="_VO-k-y00DCZbbIr2-gV-10">
          <mxGeometry relative="1" as="geometry" />
        </mxCell>
        <mxCell id="_VO-k-y00DCZbbIr2-gV-42" value="15" style="edgeLabel;html=1;align=center;verticalAlign=middle;resizable=0;points=[];" vertex="1" connectable="0" parent="_VO-k-y00DCZbbIr2-gV-15">
          <mxGeometry x="0.6413" y="-4" relative="1" as="geometry">
            <mxPoint y="1" as="offset" />
          </mxGeometry>
        </mxCell>
        <mxCell id="_VO-k-y00DCZbbIr2-gV-16" style="edgeStyle=orthogonalEdgeStyle;rounded=0;orthogonalLoop=1;jettySize=auto;html=1;exitX=0.5;exitY=1;exitDx=0;exitDy=0;entryX=0.5;entryY=0;entryDx=0;entryDy=0;" edge="1" parent="1" source="_VO-k-y00DCZbbIr2-gV-5" target="_VO-k-y00DCZbbIr2-gV-11">
          <mxGeometry relative="1" as="geometry" />
        </mxCell>
        <mxCell id="_VO-k-y00DCZbbIr2-gV-41" value="15" style="edgeLabel;html=1;align=center;verticalAlign=middle;resizable=0;points=[];" vertex="1" connectable="0" parent="_VO-k-y00DCZbbIr2-gV-16">
          <mxGeometry x="0.576" relative="1" as="geometry">
            <mxPoint y="1" as="offset" />
          </mxGeometry>
        </mxCell>
        <mxCell id="_VO-k-y00DCZbbIr2-gV-5" value="1" style="ellipse;whiteSpace=wrap;html=1;aspect=fixed;" vertex="1" parent="1">
          <mxGeometry x="630" y="260" width="80" height="80" as="geometry" />
        </mxCell>
        <mxCell id="_VO-k-y00DCZbbIr2-gV-35" style="edgeStyle=orthogonalEdgeStyle;rounded=0;orthogonalLoop=1;jettySize=auto;html=1;entryX=1;entryY=0.5;entryDx=0;entryDy=0;" edge="1" parent="1" source="_VO-k-y00DCZbbIr2-gV-10" target="_VO-k-y00DCZbbIr2-gV-26">
          <mxGeometry relative="1" as="geometry" />
        </mxCell>
        <mxCell id="_VO-k-y00DCZbbIr2-gV-51" value="12" style="edgeLabel;html=1;align=center;verticalAlign=middle;resizable=0;points=[];" vertex="1" connectable="0" parent="_VO-k-y00DCZbbIr2-gV-35">
          <mxGeometry x="0.4925" y="4" relative="1" as="geometry">
            <mxPoint y="-1" as="offset" />
          </mxGeometry>
        </mxCell>
        <mxCell id="_VO-k-y00DCZbbIr2-gV-10" value="5" style="ellipse;whiteSpace=wrap;html=1;aspect=fixed;" vertex="1" parent="1">
          <mxGeometry x="710" y="520" width="80" height="80" as="geometry" />
        </mxCell>
        <mxCell id="_VO-k-y00DCZbbIr2-gV-34" style="edgeStyle=orthogonalEdgeStyle;rounded=0;orthogonalLoop=1;jettySize=auto;html=1;entryX=1;entryY=0;entryDx=0;entryDy=0;" edge="1" parent="1" source="_VO-k-y00DCZbbIr2-gV-11" target="_VO-k-y00DCZbbIr2-gV-26">
          <mxGeometry relative="1" as="geometry" />
        </mxCell>
        <mxCell id="_VO-k-y00DCZbbIr2-gV-50" value="10" style="edgeLabel;html=1;align=center;verticalAlign=middle;resizable=0;points=[];" vertex="1" connectable="0" parent="_VO-k-y00DCZbbIr2-gV-34">
          <mxGeometry x="0.5606" relative="1" as="geometry">
            <mxPoint y="1" as="offset" />
          </mxGeometry>
        </mxCell>
        <mxCell id="_VO-k-y00DCZbbIr2-gV-11" value="6" style="ellipse;whiteSpace=wrap;html=1;aspect=fixed;" vertex="1" parent="1">
          <mxGeometry x="590" y="520" width="80" height="80" as="geometry" />
        </mxCell>
        <mxCell id="_VO-k-y00DCZbbIr2-gV-36" style="edgeStyle=orthogonalEdgeStyle;rounded=0;orthogonalLoop=1;jettySize=auto;html=1;entryX=1;entryY=0.5;entryDx=0;entryDy=0;" edge="1" parent="1" source="_VO-k-y00DCZbbIr2-gV-12" target="_VO-k-y00DCZbbIr2-gV-25">
          <mxGeometry relative="1" as="geometry" />
        </mxCell>
        <mxCell id="_VO-k-y00DCZbbIr2-gV-49" value="10" style="edgeLabel;html=1;align=center;verticalAlign=middle;resizable=0;points=[];" vertex="1" connectable="0" parent="_VO-k-y00DCZbbIr2-gV-36">
          <mxGeometry x="0.5265" y="-5" relative="1" as="geometry">
            <mxPoint as="offset" />
          </mxGeometry>
        </mxCell>
        <mxCell id="_VO-k-y00DCZbbIr2-gV-12" value="7" style="ellipse;whiteSpace=wrap;html=1;aspect=fixed;" vertex="1" parent="1">
          <mxGeometry x="440" y="600" width="80" height="80" as="geometry" />
        </mxCell>
        <mxCell id="_VO-k-y00DCZbbIr2-gV-28" style="edgeStyle=orthogonalEdgeStyle;rounded=0;orthogonalLoop=1;jettySize=auto;html=1;entryX=0.5;entryY=0;entryDx=0;entryDy=0;" edge="1" parent="1" source="_VO-k-y00DCZbbIr2-gV-13" target="_VO-k-y00DCZbbIr2-gV-25">
          <mxGeometry relative="1" as="geometry" />
        </mxCell>
        <mxCell id="_VO-k-y00DCZbbIr2-gV-48" value="6" style="edgeLabel;html=1;align=center;verticalAlign=middle;resizable=0;points=[];" vertex="1" connectable="0" parent="_VO-k-y00DCZbbIr2-gV-28">
          <mxGeometry x="0.6536" y="-2" relative="1" as="geometry">
            <mxPoint as="offset" />
          </mxGeometry>
        </mxCell>
        <mxCell id="_VO-k-y00DCZbbIr2-gV-13" value="8" style="ellipse;whiteSpace=wrap;html=1;aspect=fixed;" vertex="1" parent="1">
          <mxGeometry x="270" y="590" width="80" height="80" as="geometry" />
        </mxCell>
        <mxCell id="_VO-k-y00DCZbbIr2-gV-27" style="edgeStyle=orthogonalEdgeStyle;rounded=0;orthogonalLoop=1;jettySize=auto;html=1;entryX=0.5;entryY=0;entryDx=0;entryDy=0;" edge="1" parent="1" source="_VO-k-y00DCZbbIr2-gV-14" target="_VO-k-y00DCZbbIr2-gV-24">
          <mxGeometry relative="1" as="geometry" />
        </mxCell>
        <mxCell id="_VO-k-y00DCZbbIr2-gV-47" value="20" style="edgeLabel;html=1;align=center;verticalAlign=middle;resizable=0;points=[];" vertex="1" connectable="0" parent="_VO-k-y00DCZbbIr2-gV-27">
          <mxGeometry x="0.6215" y="7" relative="1" as="geometry">
            <mxPoint y="1" as="offset" />
          </mxGeometry>
        </mxCell>
        <mxCell id="_VO-k-y00DCZbbIr2-gV-14" value="9" style="ellipse;whiteSpace=wrap;html=1;aspect=fixed;" vertex="1" parent="1">
          <mxGeometry x="100" y="590" width="80" height="80" as="geometry" />
        </mxCell>
        <mxCell id="_VO-k-y00DCZbbIr2-gV-33" style="edgeStyle=orthogonalEdgeStyle;rounded=0;orthogonalLoop=1;jettySize=auto;html=1;exitX=0.5;exitY=1;exitDx=0;exitDy=0;entryX=0;entryY=0.5;entryDx=0;entryDy=0;" edge="1" parent="1" source="_VO-k-y00DCZbbIr2-gV-24" target="_VO-k-y00DCZbbIr2-gV-30">
          <mxGeometry relative="1" as="geometry" />
        </mxCell>
        <mxCell id="_VO-k-y00DCZbbIr2-gV-54" value="8" style="edgeLabel;html=1;align=center;verticalAlign=middle;resizable=0;points=[];" vertex="1" connectable="0" parent="_VO-k-y00DCZbbIr2-gV-33">
          <mxGeometry x="0.6505" y="-5" relative="1" as="geometry">
            <mxPoint x="-1" as="offset" />
          </mxGeometry>
        </mxCell>
        <mxCell id="_VO-k-y00DCZbbIr2-gV-24" value="12" style="ellipse;whiteSpace=wrap;html=1;aspect=fixed;" vertex="1" parent="1">
          <mxGeometry x="130" y="800" width="80" height="80" as="geometry" />
        </mxCell>
        <mxCell id="_VO-k-y00DCZbbIr2-gV-32" style="edgeStyle=orthogonalEdgeStyle;rounded=0;orthogonalLoop=1;jettySize=auto;html=1;entryX=0.5;entryY=0;entryDx=0;entryDy=0;" edge="1" parent="1" source="_VO-k-y00DCZbbIr2-gV-25" target="_VO-k-y00DCZbbIr2-gV-30">
          <mxGeometry relative="1" as="geometry" />
        </mxCell>
        <mxCell id="_VO-k-y00DCZbbIr2-gV-53" value="10" style="edgeLabel;html=1;align=center;verticalAlign=middle;resizable=0;points=[];" vertex="1" connectable="0" parent="_VO-k-y00DCZbbIr2-gV-32">
          <mxGeometry x="0.0386" y="2" relative="1" as="geometry">
            <mxPoint as="offset" />
          </mxGeometry>
        </mxCell>
        <mxCell id="_VO-k-y00DCZbbIr2-gV-25" value="11" style="ellipse;whiteSpace=wrap;html=1;aspect=fixed;" vertex="1" parent="1">
          <mxGeometry x="330" y="790" width="80" height="80" as="geometry" />
        </mxCell>
        <mxCell id="_VO-k-y00DCZbbIr2-gV-31" style="edgeStyle=orthogonalEdgeStyle;rounded=0;orthogonalLoop=1;jettySize=auto;html=1;entryX=1;entryY=0.5;entryDx=0;entryDy=0;" edge="1" parent="1" source="_VO-k-y00DCZbbIr2-gV-26" target="_VO-k-y00DCZbbIr2-gV-30">
          <mxGeometry relative="1" as="geometry" />
        </mxCell>
        <mxCell id="_VO-k-y00DCZbbIr2-gV-52" value="11" style="edgeLabel;html=1;align=center;verticalAlign=middle;resizable=0;points=[];" vertex="1" connectable="0" parent="_VO-k-y00DCZbbIr2-gV-31">
          <mxGeometry x="0.7648" y="2" relative="1" as="geometry">
            <mxPoint x="-1" as="offset" />
          </mxGeometry>
        </mxCell>
        <mxCell id="_VO-k-y00DCZbbIr2-gV-26" value="10" style="ellipse;whiteSpace=wrap;html=1;aspect=fixed;" vertex="1" parent="1">
          <mxGeometry x="560" y="790" width="80" height="80" as="geometry" />
        </mxCell>
        <mxCell id="_VO-k-y00DCZbbIr2-gV-30" value="13" style="ellipse;whiteSpace=wrap;html=1;aspect=fixed;" vertex="1" parent="1">
          <mxGeometry x="330" y="950" width="80" height="80" as="geometry" />
        </mxCell>
      </root>
    </mxGraphModel>
  </diagram>
</mxfile>
